<svg xmlns="http://www.w3.org/2000/svg" xmlns:xlink="http://www.w3.org/1999/xlink" viewBox="0 0 117 108"><defs><style>.cls-1{fill:none;}.cls-2{isolation:isolate;}.cls-3{fill:#ebe8e4;}.cls-4{clip-path:url(#clip-path);}.cls-5{fill:#faf6f4;}.cls-6{fill:#eae7e4;mix-blend-mode:multiply;}.cls-7{fill:#ffb700;}.cls-8{fill:#084fff;}.cls-9{fill:#0c6ff9;}.cls-10{fill:#ff7e1d;}.cls-11{clip-path:url(#clip-path-2);}.cls-12{fill:#ff6700;}.cls-13{fill:#413d45;}.cls-14{fill:#f90;}</style><clipPath id="clip-path"><rect class="cls-1" width="117" height="108"/></clipPath><clipPath id="clip-path-2"><path class="cls-1" d="M75,52.76c.49,6.76-2.65,10.6-4.55,13.28-2.94,3.11-6.68,7.34-16.16,7.58-8,.31-12-3.22-15.31-6.3-4.33-4.75-5.46-7.56-5.67-14.56a20.33,20.33,0,0,1,4.52-12.35c4.06-5.72,10.51-7.64,16.46-8,6.25-.24,11.22,2.91,14.62,6.31,4.34,4.58,5.67,8.51,6.09,14.08"/></clipPath></defs><title>visual-dotcom_navi_featured_desktop-guided_meditation-202000805-kh</title><g class="cls-2"><g id="Layer_1" data-name="Layer 1"><rect class="cls-3" width="117" height="108"/><g class="cls-4"><path class="cls-5" d="M124.3,1.53H97.39c-15,19.31-12.28,43-26,63.25C66.69,71.7,58,74,53.06,73.66A19,19,0,0,1,41.48,69.6C19,53.59,12.78,22.15-8.9,5a34.08,34.08,0,0,0-5.27-3.48H-16a4.14,4.14,0,0,0-4.13,4.13V80.5c3.3,3.08,6.73,6,10.16,8.82C-2.7,95.26,4.84,101,13.39,104.87s18,5.7,27.32,6.79a187.09,187.09,0,0,0,33.38.91c8.36-.52,16.74-1.61,24.68-4.27A86.71,86.71,0,0,0,123,95c1.85-1.38,3.66-2.83,5.43-4.32v-85A4.14,4.14,0,0,0,124.3,1.53Z"/><path class="cls-6" d="M55.34,70l2.52-.9A15.53,15.53,0,0,0,55.34,70Z"/><path class="cls-6" d="M19.65,58.3c9,7.7,19.66,14.39,31.5,15.27a34,34,0,0,0,6.22-.12l.56-.15c-2.66,0-4.7-.54-4.83-1.32-.08-.54.77-1.28,2.24-2l-4.63,1.65a17.12,17.12,0,0,1-5.48.2,20.79,20.79,0,0,1-2-1.09A42.83,42.83,0,0,1,29.82,60.17a18.42,18.42,0,0,0-3.16-3.34A6,6,0,0,0,22,55.63a3.75,3.75,0,0,0-1.45.76,4,4,0,0,0-1.17,1.68Z"/><path class="cls-7" d="M128.43,108.81V4.06C113.26,5.4,103.06,19.81,96.21,31.42,91,40.35,88.66,50.92,82.49,59.24A36.4,36.4,0,0,1,51.15,73.57C39.31,72.69,28.68,66,19.65,58.3S2.57,41.69-7.19,34.94a57.94,57.94,0,0,0-12.92-6.79v80.66A4.14,4.14,0,0,0-16,112.93H124.3A4.14,4.14,0,0,0,128.43,108.81Z"/><path class="cls-8" d="M128.43,30.39a54.94,54.94,0,0,0-5.81,8c-4.15,6.89-7.23,14.39-11.45,21.24A73.4,73.4,0,0,1,91.39,80.78,40,40,0,0,1,79.29,87c-7.86,2.21-16.31.77-24.07-1.76C28.67,76.54,6.73,55.45-20.11,49V78.21c11,6.08,22.35,11.52,33.68,16.93,13.21,6.31,26.51,12.66,40.62,16.55q2.43.68,4.89,1.24H124.3a4.14,4.14,0,0,0,4.13-4.12Z"/><path class="cls-9" d="M-16,112.93H124.3a4.14,4.14,0,0,0,4.13-4.12V75.61c-7.81,7.71-14.94,16.27-24.76,21-8.2,3.9-17.63,4.7-26.62,3.47S59.43,95.65,51.15,92A259.07,259.07,0,0,1,12.52,70.12C2.3,63.25-8.4,55.6-20.11,52.88v55.93A4.14,4.14,0,0,0-16,112.93Z"/><path class="cls-8" d="M54.5,107.61c-9.46-7.29-19.91-13.51-31.35-17s-23.95-4-35.26-.15a47,47,0,0,0-8,3.59v14.71A4.14,4.14,0,0,0-16,112.93H60.94C58.86,111.07,56.7,109.3,54.5,107.61Z"/><path class="cls-10" d="M75,52.76c.49,6.76-2.65,10.6-4.55,13.28-2.94,3.11-6.68,7.34-16.16,7.58-8,.31-12-3.22-15.31-6.3-4.33-4.75-5.46-7.56-5.67-14.56a20.33,20.33,0,0,1,4.52-12.35c4.06-5.72,10.51-7.64,16.46-8,6.25-.24,11.22,2.91,14.62,6.31,4.34,4.58,5.67,8.51,6.09,14.08"/><g class="cls-11"><path class="cls-12" d="M68.87,60.32c.48,6.76-2.66,10.6-4.55,13.28-2.95,3.11-6.68,7.34-16.16,7.58-8,.32-12-3.22-15.32-6.29-4.32-4.76-5.45-7.57-5.67-14.57A20.25,20.25,0,0,1,31.7,48c4.06-5.73,10.5-7.65,16.46-8,6.24-.25,11.21,2.91,14.61,6.3,4.34,4.58,5.68,8.51,6.1,14.08"/></g><path class="cls-13" d="M40.07,45.75a2.4,2.4,0,0,1-1.29-.38.45.45,0,0,1-.13-.61.44.44,0,0,1,.6-.13A1.5,1.5,0,0,0,41,44.56a1.53,1.53,0,0,0,.52-1.67.43.43,0,0,1,.28-.55.44.44,0,0,1,.55.28,2.39,2.39,0,0,1-2.27,3.13Z"/><path class="cls-13" d="M44.42,42.38A2.3,2.3,0,0,1,43.14,42a.42.42,0,0,1-.13-.6.44.44,0,0,1,.6-.13,1.51,1.51,0,0,0,2.25-1.74.44.44,0,0,1,.28-.55.43.43,0,0,1,.55.28,2.39,2.39,0,0,1-.81,2.63A2.36,2.36,0,0,1,44.42,42.38Z"/><path class="cls-13" d="M37.94,49c-.37,0-.74,0-1.11-.05a.44.44,0,1,1,.08-.87,12.05,12.05,0,0,0,12.89-10,.44.44,0,0,1,.86.15A12.94,12.94,0,0,1,37.94,49Z"/></g><path class="cls-14" d="M32,72.41a38.42,38.42,0,0,0,10.5,2.45,41,41,0,0,0,14.89-1.41,34,34,0,0,1-6.22.12C39.31,72.69,28.68,66,19.65,58.3l-.27-.23a7,7,0,0,0-.31,1.15c-.49,2.76,1.84,5.56,2.77,6.67C25.06,69.69,29,71.27,32,72.41Z"/></g></g></svg>