<svg id="Layer_1" data-name="Layer 1" xmlns="http://www.w3.org/2000/svg" xmlns:xlink="http://www.w3.org/1999/xlink" viewBox="0 0 117 108"><defs><style>.cls-1,.cls-11{fill:none;}.cls-2{fill:#ff7e1d;}.cls-3{clip-path:url(#clip-path);}.cls-4{fill:#fc491e;}.cls-5{clip-path:url(#clip-path-2);}.cls-6{fill:#ff6700;}.cls-7{fill:#ffb700;}.cls-8{clip-path:url(#clip-path-3);}.cls-9{fill:#ffce00;}.cls-10{clip-path:url(#clip-path-4);}.cls-11{stroke:#f90;stroke-linecap:round;stroke-linejoin:round;stroke-width:1.22px;}.cls-12{clip-path:url(#clip-path-5);}.cls-13{clip-path:url(#clip-path-6);}.cls-14{clip-path:url(#clip-path-7);}</style><clipPath id="clip-path"><rect class="cls-1" width="117" height="108"/></clipPath><clipPath id="clip-path-2"><circle class="cls-1" cx="-5.99" cy="59.08" r="24.01"/></clipPath><clipPath id="clip-path-3"><circle class="cls-1" cx="82.9" cy="2.63" r="35.84"/></clipPath><clipPath id="clip-path-4"><circle class="cls-1" cx="58.5" cy="125.85" r="66.13"/></clipPath><clipPath id="clip-path-5"><circle class="cls-1" cx="35.29" cy="44.72" r="13.51"/></clipPath><clipPath id="clip-path-6"><circle class="cls-1" cx="86.02" cy="56.95" r="6.14"/></clipPath><clipPath id="clip-path-7"><circle class="cls-1" cx="114.88" cy="57.79" r="19.85"/></clipPath></defs><title>visual-dotcom_navi_featured_desktop-meditation_benefits-202000805-kh</title><rect class="cls-2" width="117" height="108"/><g class="cls-3"><circle class="cls-4" cx="-5.99" cy="59.08" r="24.01"/><g class="cls-5"><ellipse class="cls-6" cx="19.99" cy="75.38" rx="33.92" ry="24.01" transform="translate(-57.3 85.76) rotate(-82.79)"/></g><circle class="cls-6" cx="108.94" cy="29" r="6.14"/><circle class="cls-7" cx="82.9" cy="2.63" r="35.84"/><g class="cls-8"><ellipse class="cls-9" cx="65.48" cy="19.15" rx="35.84" ry="44.96" transform="translate(10.03 58.9) rotate(-51.94)"/></g><circle class="cls-7" cx="58.5" cy="125.85" r="66.13"/><g class="cls-10"><circle class="cls-9" cx="76.28" cy="57.54" r="66.13"/></g><path class="cls-11" d="M50.48,66a3.23,3.23,0,0,0,6.45,0"/><path class="cls-11" d="M60.07,66a3.23,3.23,0,0,0,6.45,0"/><path class="cls-11" d="M44.22,66a15.1,15.1,0,0,0,28.56,0"/><circle class="cls-7" cx="35.29" cy="44.72" r="13.51"/><g class="cls-12"><ellipse class="cls-9" cx="37.86" cy="50.86" rx="18.96" ry="13.51" transform="translate(-22.83 32.5) rotate(-36.5)"/></g><circle class="cls-4" cx="86.02" cy="56.95" r="6.14"/><g class="cls-13"><ellipse class="cls-6" cx="83.35" cy="59.22" rx="6.14" ry="7.82" transform="translate(-17.91 45.05) rotate(-27.43)"/></g><circle class="cls-4" cx="114.88" cy="57.79" r="19.85"/><g class="cls-14"><ellipse class="cls-6" cx="101.11" cy="63.75" rx="19.85" ry="27.17" transform="translate(-17.8 51.56) rotate(-26.38)"/></g><circle class="cls-6" cx="12.32" cy="9.48" r="25.89"/></g></svg>