<svg id="Layer_1" data-name="Layer 1" xmlns="http://www.w3.org/2000/svg" xmlns:xlink="http://www.w3.org/1999/xlink" viewBox="0 0 117 108"><defs><style>.cls-1,.cls-11{fill:none;}.cls-2{fill:#ff6700;}.cls-3{clip-path:url(#clip-path);}.cls-4{fill:#fc491e;}.cls-5{fill:#ffb700;}.cls-6{clip-path:url(#clip-path-2);}.cls-7{fill:#ffce00;}.cls-8{fill:#cbcbcc;}.cls-9{clip-path:url(#clip-path-3);}.cls-10{fill:#e5e5e5;}.cls-11{stroke:#413d45;stroke-linecap:round;stroke-linejoin:round;stroke-width:0.72px;}</style><clipPath id="clip-path"><rect class="cls-1" width="117" height="108"/></clipPath><clipPath id="clip-path-2"><path class="cls-1" d="M-40.85-62.36V23.88A116,116,0,0,0,58.5,79.17a116,116,0,0,0,99.35-55.29V-62.36Z"/></clipPath><clipPath id="clip-path-3"><path class="cls-1" d="M50.55,79.17a6.29,6.29,0,0,0,0,12.58H66.07a6.29,6.29,0,1,0,0-12.58Z"/></clipPath></defs><title>visual-dotcom_navi_featured_desktop-meditation_for_stress-202000805-kh</title><rect class="cls-2" width="117" height="108"/><g class="cls-3"><path class="cls-4" d="M170.6,71.34c-27.15-8.91-61.24-1.76-72.53-.79C69.79,73,59.66,71.72,57.18,86.68c-.4,2.39-6.63,1-9,2.59-1.58,1.08-.16,2.48,3.15,2.48h20.7c27.32-1.57,91.07,4.18,110.28-15.34"/><path class="cls-5" d="M174-33.84c0,62.41-51.73,113-115.54,113S-57,28.57-57-33.84s51.73-113,115.54-113S174-96.26,174-33.84"/><g class="cls-6"><path class="cls-7" d="M139.54-37.67c0,62.41-51.72,113-115.53,113s-115.54-50.6-115.54-113,51.73-113,115.54-113,115.53,50.6,115.53,113"/></g></g><path class="cls-8" d="M66.07,91.75H50.55a6.29,6.29,0,0,1,0-12.58H66.07a6.29,6.29,0,1,1,0,12.58"/><g class="cls-9"><path class="cls-10" d="M67.86,74.56a19,19,0,1,1-19-19,19,19,0,0,1,19,19"/></g><path class="cls-11" d="M54.05,82.19a1.89,1.89,0,0,0,3.55,0"/><path class="cls-11" d="M59.38,82.19a1.89,1.89,0,0,0,3.55,0"/><path class="cls-11" d="M50.33,83.6a12.06,12.06,0,0,0,16.34,0"/></svg>