<svg id="Layer_1" data-name="Layer 1" xmlns="http://www.w3.org/2000/svg" xmlns:xlink="http://www.w3.org/1999/xlink" viewBox="0 0 117 108"><defs><style>.cls-1,.cls-9{fill:none;}.cls-2{fill:#32aaff;}.cls-3{fill:#0c6ff9;}.cls-4{clip-path:url(#clip-path);}.cls-5{fill:#084fff;}.cls-6{fill:#ffce00;}.cls-7{fill:#ffb700;}.cls-8{fill:#fff;}.cls-9{stroke:#32aaff;stroke-linecap:round;stroke-linejoin:round;stroke-width:0.58px;}.cls-10{clip-path:url(#clip-path-2);}.cls-11{fill:#f2f2f2;}</style><clipPath id="clip-path"><path class="cls-1" d="M112.94,58.82,59.8,80.34a3.54,3.54,0,0,1-2.6,0L4.06,58.82a1.12,1.12,0,0,1,0-2.07L57.2,35.23a3.54,3.54,0,0,1,2.6,0l53.14,21.52A1.12,1.12,0,0,1,112.94,58.82Z"/></clipPath><clipPath id="clip-path-2"><circle class="cls-1" cx="58.5" cy="63" r="7.85"/></clipPath></defs><title>visual-dotcom_navi_featured_desktop-how_to_stop_worrying-202000805-kh</title><rect class="cls-2" width="117" height="108"/><path class="cls-3" d="M112.94,58.82,59.8,80.34a3.54,3.54,0,0,1-2.6,0L4.06,58.82a1.12,1.12,0,0,1,0-2.07L57.2,35.23a3.54,3.54,0,0,1,2.6,0l53.14,21.52A1.12,1.12,0,0,1,112.94,58.82Z"/><g class="cls-4"><polygon class="cls-5" points="58.5 34.71 58.5 64.04 37.73 72.45 1.5 57.78 58.5 34.71"/><polygon class="cls-6" points="115.5 87.12 58.5 110.19 1.5 87.12 58.5 64.04 115.5 87.12"/></g><ellipse class="cls-7" cx="61.12" cy="68.9" rx="5.67" ry="1.97" transform="translate(-5.06 4.84) rotate(-4.36)"/><circle class="cls-8" cx="58.5" cy="63" r="7.85"/><path class="cls-9" d="M55.91,59A1,1,0,0,0,58,59"/><path class="cls-9" d="M59,59a1,1,0,0,0,2.09,0"/><path class="cls-9" d="M53.89,59a4.88,4.88,0,0,0,9.23,0"/><g class="cls-10"><path class="cls-11" d="M53.4,70.14A45.15,45.15,0,0,0,66.41,60a11.84,11.84,0,0,1-5,14.66"/></g></svg>