<svg id="Layer_1" data-name="Layer 1" xmlns="http://www.w3.org/2000/svg" xmlns:xlink="http://www.w3.org/1999/xlink" viewBox="0 0 117 108"><defs><style>.cls-1,.cls-9{fill:none;}.cls-2{fill:#ffce00;}.cls-3{clip-path:url(#clip-path);}.cls-4{fill:#ffb700;}.cls-5{fill:#f90;}.cls-6{fill:#32aaff;}.cls-7{clip-path:url(#clip-path-2);}.cls-8{fill:#0c6ff9;}.cls-9{stroke:#033fff;stroke-linecap:round;stroke-linejoin:round;stroke-width:0.71px;}.cls-10{fill:#ff7e1d;}.cls-11{clip-path:url(#clip-path-3);}.cls-12{clip-path:url(#clip-path-4);}.cls-13{clip-path:url(#clip-path-5);}.cls-14{clip-path:url(#clip-path-6);}</style><clipPath id="clip-path"><rect class="cls-1" width="117" height="108"/></clipPath><clipPath id="clip-path-2"><circle class="cls-1" cx="59.14" cy="82.04" r="10.89"/></clipPath><clipPath id="clip-path-3"><path class="cls-1" d="M131.44,9.9,121.81,2a5.63,5.63,0,0,0-5.56-.91l-11.63,4.4a5.63,5.63,0,0,0-3.57,4.37L99,22.16a5.66,5.66,0,0,0,2,5.28l9.63,7.87a5.67,5.67,0,0,0,5.57.91l11.63-4.41a5.64,5.64,0,0,0,3.57-4.36l2-12.28A5.64,5.64,0,0,0,131.44,9.9Z"/></clipPath><clipPath id="clip-path-4"><rect class="cls-1" x="24.7" y="41.3" width="27.28" height="27.28" rx="4.67" transform="translate(-28.07 63.79) rotate(-62.68)"/></clipPath><clipPath id="clip-path-5"><circle class="cls-1" cx="77.36" cy="37.68" r="25.45"/></clipPath><clipPath id="clip-path-6"><rect class="cls-1" x="-12.87" y="-1.52" width="69.32" height="42.15" rx="21.08" transform="translate(51.07 19.85) rotate(138.68)"/></clipPath></defs><title>visual-dotcom_navi_featured_desktop-how_to_relieve_stress-202000805-kh</title><rect class="cls-2" width="117" height="108"/><g class="cls-3"><ellipse class="cls-4" cx="59.14" cy="92.75" rx="37.24" ry="3.39"/><ellipse class="cls-5" cx="59.14" cy="92.75" rx="10.75" ry="1.84"/><circle class="cls-6" cx="59.14" cy="82.04" r="10.89"/><g class="cls-7"><path class="cls-8" d="M38.8,86.21l43.55-4.64L79.12,57.69s-53.7-3.19-51.53-2.12S38.8,86.21,38.8,86.21Z"/></g><path class="cls-9" d="M57.43,78.54a1.69,1.69,0,0,0,3.15,0"/><path class="cls-9" d="M59.77,75.72a2.24,2.24,0,0,0,4.17,0"/><path class="cls-9" d="M54.07,75.72a2.25,2.25,0,0,0,4.18,0"/><path class="cls-10" d="M95.69-76.9,49.59-88a13.11,13.11,0,0,0-8.88,1L-1.72-65.8a13,13,0,0,0-6.15,6.48L-26.78-15.85a13.11,13.11,0,0,0-.54,8.92l13.46,45.46a13.08,13.08,0,0,0,5.32,7.19L31,71.88A13,13,0,0,0,39.68,74l47.1-5.36a13,13,0,0,0,8-4l32.64-34.39A13.1,13.1,0,0,0,131,22l2.9-47.33a13.06,13.06,0,0,0-2.54-8.56L103.14-72A13.06,13.06,0,0,0,95.69-76.9Z"/><path class="cls-4" d="M131.44,9.9,121.81,2a5.63,5.63,0,0,0-5.56-.91l-11.63,4.4a5.63,5.63,0,0,0-3.57,4.37L99,22.16a5.66,5.66,0,0,0,2,5.28l9.63,7.87a5.67,5.67,0,0,0,5.57.91l11.63-4.41a5.64,5.64,0,0,0,3.57-4.36l2-12.28A5.64,5.64,0,0,0,131.44,9.9Z"/><g class="cls-11"><polygon class="cls-5" points="95.81 16.91 121.37 34.86 110.62 40.98 95.15 31.32 95.81 16.91"/></g><rect class="cls-5" x="54.37" y="1.76" width="12.91" height="12.91" rx="1.72" transform="translate(7.04 -21.35) rotate(21.1)"/><circle class="cls-5" cx="86.58" cy="-10.64" r="23.71"/><rect class="cls-4" x="24.7" y="41.3" width="27.28" height="27.28" rx="4.67" transform="translate(-28.07 63.79) rotate(-62.68)"/><g class="cls-12"><path class="cls-5" d="M43.77,39s6.73,28,8.41,27.27,13.33-16.1,13.33-16.1L50.86,35.87Z"/></g><circle class="cls-5" cx="77.36" cy="37.68" r="25.45"/><g class="cls-13"><circle class="cls-4" cx="73.44" cy="40.86" r="25.45"/></g><rect class="cls-4" x="-12.87" y="-1.52" width="69.32" height="42.15" rx="21.08" transform="translate(51.07 19.85) rotate(138.68)"/><g class="cls-14"><polygon class="cls-5" points="14.17 51.76 55.1 7.38 57.48 18.33 17.38 56.4 14.17 51.76"/></g><circle class="cls-5" cx="45.48" cy="35.98" r="6.49"/></g></svg>