<svg id="Layer_1" data-name="Layer 1" xmlns="http://www.w3.org/2000/svg" xmlns:xlink="http://www.w3.org/1999/xlink" viewBox="0 0 117 108"><defs><style>.cls-1,.cls-9{fill:none;}.cls-2{fill:#ffce00;}.cls-3{clip-path:url(#clip-path);}.cls-4{fill:#ffb700;}.cls-5{fill:#3a3938;}.cls-6{fill:#ff7e1d;}.cls-7{clip-path:url(#clip-path-2);}.cls-8{fill:#faf6f4;}.cls-9{stroke:#3a3938;stroke-linecap:round;stroke-linejoin:round;stroke-width:2.04px;}</style><clipPath id="clip-path"><rect class="cls-1" width="117" height="108"/></clipPath><clipPath id="clip-path-2"><circle class="cls-1" cx="96.97" cy="84.05" r="58.93"/></clipPath></defs><title>visual-dotcom_navi_featured_desktop-how_to_form_a_habit-202000805-kh</title><rect class="cls-2" width="117" height="108"/><g class="cls-3"><circle class="cls-4" cx="91.42" cy="100.29" r="77.73"/><circle class="cls-5" cx="96.97" cy="84.05" r="68.75"/><circle class="cls-6" cx="96.97" cy="84.05" r="58.93"/><g class="cls-7"><path class="cls-8" d="M52.76,37.53,97.59,81,16.71,95.77s22.57,43,36.4,57.38,32.61,24.78,52.53,25.17c20.52.41,40.27-9.94,54.42-24.8s23.24-33.88,29.66-53.36c3.7-11.21,6.58-23.41,3.12-34.69-3.36-11-12.16-19.29-20.87-26.77C153.65,23,132.94,8.05,109,5.24"/></g><rect class="cls-5" x="83.55" y="51.52" width="4.22" height="37.03" rx="2.11" transform="translate(-24.35 81.87) rotate(-45.41)"/><rect class="cls-5" x="83.44" y="69.4" width="4.22" height="27.7" rx="2.11" transform="translate(17.61 181.39) rotate(-99.53)"/><path class="cls-5" d="M100.26,84.73a4.05,4.05,0,0,1-2.8,1.21,4.36,4.36,0,0,1-3.58-1.49,4.15,4.15,0,0,1-1.23-3.38,4,4,0,0,1,1.52-3A4.4,4.4,0,0,1,96.81,77a4.55,4.55,0,0,1,3.7,1.47,4.28,4.28,0,0,1,1.12,3.27,4.43,4.43,0,0,1-1.37,3"/><path class="cls-9" d="M54.81,64.12A4,4,0,0,0,62,66.18"/><path class="cls-9" d="M65.59,67.21a4,4,0,0,0,7.19,2.06"/><path class="cls-9" d="M46.46,64.83A25.44,25.44,0,0,0,79.53,74.3"/></g></svg>