<?xml version="1.0" encoding="utf-8"?>
<!-- Generator: Adobe Illustrator 24.0.3, SVG Export Plug-In . SVG Version: 6.00 Build 0)  -->
<svg version="1.1" id="Layer_1" xmlns="http://www.w3.org/2000/svg" xmlns:xlink="http://www.w3.org/1999/xlink" x="0px" y="0px"
	 viewBox="0 0 925 925" style="enable-background:new 0 0 925 925;" xml:space="preserve">
<style type="text/css">
	.st0{clip-path:url(#SVGID_2_);}
	.st1{fill:#32AAFF;}
	.st2{fill:none;stroke:#0C6FF9;stroke-width:14;stroke-linecap:round;stroke-linejoin:round;}
	.st3{clip-path:url(#SVGID_4_);}
	.st4{fill:#0C6FF9;}
</style>
<title>visual-dotcom_category_page_corner_desktop_tablet-mindfulness-202000806-kh</title>
<g>
	<defs>
		<rect id="SVGID_1_" width="925" height="925"/>
	</defs>
	<clipPath id="SVGID_2_">
		<use xlink:href="#SVGID_1_"  style="overflow:visible;"/>
	</clipPath>
	<g class="st0">
		<path class="st1" d="M584.4,635.2h-0.3c-15.2,0.1-27.7-12.2-27.8-27.4c0-0.2,0-0.5,0-0.7c0-2.6,0-5.2,0-7.8
			c-2.3-84.3-72-151.8-156.3-151.6c-4.5,0-9.1,0.2-13.5,0.6c-14.1,1.3-26.9-8.3-29.6-22.2c-28-142.1-153.2-249.3-303.5-249.3
			c-171.2,0-311.4,142-309.4,313.2c1.7,138.4,94.3,255,220.9,292.7v172.7h425.6c56,107.1,188.2,148.5,295.3,92.6
			c72.2-37.7,117.4-112.4,117.5-193.8C803.2,733.1,705.2,635.2,584.4,635.2z"/>
		<path class="st1" d="M779,286.5c-1.6-0.1-3.1-0.1-4.7,0c-6.8,0.3-12.8-4.5-13.9-11.2c-8.3-44.9-51.5-74.6-96.4-66.2
			c-24,4.5-44.8,19.3-56.8,40.5c-2.9,4.9-8.5,7.6-14.1,6.7c-4.1-0.6-8.3-0.8-12.5-0.6c-32.4,1.9-57.1,29.7-55.3,62.1
			c1.8,31.1,27.6,55.4,58.7,55.4h192.4c23.9,0.1,43.4-19.3,43.4-43.2C819.9,306.8,802,287.8,779,286.5z"/>
	</g>
</g>
<path class="st2" d="M164.9,557.1c6.1,17.1,24.9,26,42,19.9c9.3-3.3,16.6-10.6,19.9-19.9"/>
<path class="st2" d="M257.8,557.1c6.1,17.1,24.9,26,42,19.9c9.3-3.3,16.6-10.6,19.9-19.9"/>
<path class="st2" d="M100,581.8c80.5,74,204.3,74,284.9,0"/>
<g>
	<defs>
		<path id="SVGID_3_" d="M779,286.5c-1.6-0.1-3.1-0.1-4.7,0c-6.8,0.3-12.8-4.5-13.9-11.2c-8.3-44.9-51.5-74.6-96.4-66.2
			c-24,4.5-44.8,19.3-56.8,40.5c-2.9,4.9-8.5,7.6-14.1,6.7c-4.1-0.6-8.3-0.8-12.5-0.6c-32.4,1.9-57.1,29.7-55.3,62.1
			c1.8,31.1,27.6,55.4,58.7,55.4h192.4c23.9,0.1,43.4-19.3,43.4-43.2C819.9,306.8,802,287.8,779,286.5z"/>
	</defs>
	<clipPath id="SVGID_4_">
		<use xlink:href="#SVGID_3_"  style="overflow:visible;"/>
	</clipPath>
	<g class="st3">
		<path class="st4" d="M505.2,275.4c0,0,91,101.1,271.4,97.6C955.3,547.1,461.5,388,461.5,388L505.2,275.4z"/>
	</g>
</g>
</svg>
